<svg xmlns="http://www.w3.org/2000/svg" viewBox="0 0 160 160">
<defs><linearGradient id="bg" x1="0" y1="0" x2="1" y2="1"><stop stop-color="#0b2030"/><stop offset="1" stop-color="#1e5670"/></linearGradient></defs>
<rect width="160" height="160" rx="80" fill="url(#bg)"/>
<circle cx="80" cy="68" r="42" fill="#8d5524"/>
<path d="M39 69c0-34 19-52 42-52 26 0 42 20 42 51-8-10-14-15-24-18-16-5-38 2-60 19z" fill="#8b5a2b"/>
<path d="M45 126c10-17 24-25 35-25s27 8 35 25l15 34H30z" fill="#e0a21a"/>
<circle cx="64" cy="70" r="4" fill="#222"/><circle cx="96" cy="70" r="4" fill="#222"/>
<path d="M68 89q12 8 24 0" fill="none" stroke="#7b3f2a" stroke-width="4" stroke-linecap="round"/>
<circle cx="18" cy="18" r="13" fill="#fff" opacity=".14"/><text x="18" y="23" font-family="Arial" font-size="12" font-weight="700" fill="#fff" text-anchor="middle">19</text>
</svg>